# xmcd
#
# Track frame offsets:
#	150
#	26885
#	40584
#	65211
#	80078
#	93185
#	112312
#	131447
#	147550
#
# Disc length: 2255 seconds
#
# Revision: 0
# Processed by: cddbd v1.5.1PL0 Copyright (c) Steve Scherf et al.
# Submitted via: dBpowerAMP V4.0
#
DISCID=8508cd09
DTITLE=Tequila Sunrise - Demo CD
DYEAR=2001
DGENRE=Country
TTITLE0=Four Aces
TTITLE1=Mazurka
TTITLE2=I'm on my way back home
TTITLE3=Jambalaya
TTITLE4=San Antonio
TTITLE5=Ramona
TTITLE6=Rosalita
TTITLE7=Going up that Country
TTITLE8=Mendocino
EXTD=
EXTT0=
EXTT1=
EXTT2=
EXTT3=
EXTT4=
EXTT5=
EXTT6=
EXTT7=
EXTT8=
PLAYORDER=
